<?xml version="1.0" encoding="utf-8"?>
<!-- Generator: Adobe Illustrator 27.8.1, SVG Export Plug-In . SVG Version: 6.00 Build 0)  -->
<svg version="1.1" id="Capa_1" xmlns="http://www.w3.org/2000/svg" xmlns:xlink="http://www.w3.org/1999/xlink" x="0px" y="0px"
	 viewBox="0 0 64 64" style="enable-background:new 0 0 64 64;" xml:space="preserve">
<style type="text/css">
	.st0{fill:#000000;}
</style>
<g>
	<path class="st0" d="M62.5,37.1C62.5,37.1,62.5,37.1,62.5,37.1C62.5,37.1,62.5,37.1,62.5,37.1c0-0.2,0-0.3-0.1-0.4c0,0,0,0,0-0.1
		c0,0,0,0,0,0l-9.1-19.2c-0.1-2.7-2.4-4.8-5.1-4.8H36c-0.3-0.4-0.6-0.7-1-1l1-2.1c0.1-0.3,0.1-0.6,0-0.9l-3-6.6
		c-0.2-0.4-0.5-0.6-0.9-0.6c-0.4,0-0.8,0.2-0.9,0.6l-3,6.6c-0.1,0.3-0.1,0.6,0,0.9l1,2.1c-0.4,0.3-0.7,0.6-1,1H15.7
		c-2.7,0-4.9,2.1-5.1,4.8L1.6,36.6c0,0,0,0,0,0c0,0,0,0,0,0.1c0,0.1-0.1,0.2-0.1,0.3c0,0,0,0,0,0s0,0,0,0.1v0
		c0.1,5.5,4.6,9.9,10.2,9.9c5.5,0,10-4.4,10.2-9.9v0c0,0,0,0,0-0.1s0,0,0,0c0-0.1,0-0.2-0.1-0.3c0,0,0,0,0-0.1c0,0,0,0,0,0
		l-8.5-17.9H28c0.3,0.4,0.6,0.7,1,1v30.5h-6.1c-1.7,0-3.1,1.4-3.1,3.1v1h-3.2c-2.2,0-3.9,1.8-3.9,3.9v3.2c0,0.6,0.5,1,1,1h36.6
		c0.6,0,1-0.5,1-1v-3.2c0-2.2-1.8-3.9-3.9-3.9h-3.2v-1c0-1.7-1.4-3.1-3.1-3.1H35V19.8c0.4-0.3,0.7-0.6,1-1h14.7l-8.5,17.9
		c0,0,0,0,0,0c0,0,0,0,0,0.1c0,0.1-0.1,0.2-0.1,0.3c0,0,0,0,0,0s0,0,0,0.1v0c0.1,5.5,4.6,9.9,10.2,9.9
		C57.8,47.1,62.4,42.7,62.5,37.1L62.5,37.1z M28.9,15.7c0-1.2,0.7-2.3,1.8-2.8c0,0,0,0,0,0c0,0,0,0,0,0c0.8-0.4,1.7-0.4,2.5,0
		c0,0,0,0,0,0c0,0,0,0,0,0c1,0.5,1.7,1.5,1.8,2.6c0.1,1.1-0.5,2.2-1.4,2.8c-0.9,0.6-2.1,0.6-3.1,0.1C29.5,17.9,28.9,16.9,28.9,15.7
		L28.9,15.7z M30.1,9.1L32,5l1.9,4.2l-0.8,1.7c-0.8-0.2-1.6-0.2-2.3,0L30.1,9.1z M11.7,45.2c-4.1,0-7.5-3.1-8.1-7.1h16.1
		C19.2,42.2,15.8,45.2,11.7,45.2L11.7,45.2z M4.1,36.1l7.5-15.9l7.5,15.9H4.1z M12.9,16.8c0.4-1.2,1.6-2,2.9-2H27
		c-0.1,0.7-0.1,1.4,0,2H12.9z M49.3,58.3v2.1H14.7v-2.1c0-1.1,0.9-1.9,1.9-1.9h30.7C48.4,56.4,49.3,57.2,49.3,58.3L49.3,58.3z
		 M42.2,53.4v1H21.8v-1c0-0.6,0.5-1,1-1h18.2C41.7,52.3,42.2,52.8,42.2,53.4L42.2,53.4z M33,50.3h-2V20.7c0.7,0.1,1.4,0.1,2,0V50.3z
		 M37,14.7h11.3c1.3,0,2.4,0.8,2.9,2H37C37.1,16.1,37.1,15.4,37,14.7L37,14.7z M52.3,20.1l7.5,15.9H44.8L52.3,20.1z M52.3,45.2
		c-4.1,0-7.5-3.1-8.1-7.1h16.1C59.9,42.2,56.4,45.2,52.3,45.2L52.3,45.2z M52.3,45.2"/>
</g>
</svg>
