<?xml version="1.0" encoding="utf-8"?>
<!-- Generator: Adobe Illustrator 27.8.1, SVG Export Plug-In . SVG Version: 6.00 Build 0)  -->
<svg version="1.1" id="Capa_1" xmlns="http://www.w3.org/2000/svg" xmlns:xlink="http://www.w3.org/1999/xlink" x="0px" y="0px"
	 viewBox="0 0 64 64" style="enable-background:new 0 0 64 64;" xml:space="preserve">
<style type="text/css">
	.st0{fill:#FFFFFF;}
</style>
<path class="st0" d="M53.9,10.1C48.1,4.2,40.3,1,32,1s-16.1,3.2-21.9,9.1S1,23.7,1,32s3.2,16.1,9.1,21.9C15.9,59.8,23.7,63,32,63
	s16.1-3.2,21.9-9.1C59.8,48.1,63,40.3,63,32S59.8,15.9,53.9,10.1L53.9,10.1L53.9,10.1z M14.5,53c1-8.8,8.6-15.6,17.5-15.6
	c4.7,0,9.2,1.8,12.5,5.2c2.8,2.8,4.6,6.5,5.1,10.4c-4.8,4-10.9,6.4-17.5,6.4S19.2,57,14.5,53L14.5,53L14.5,53z M32,33.6
	c-5.2,0-9.4-4.2-9.4-9.4s4.2-9.4,9.4-9.4s9.4,4.2,9.4,9.4S37.2,33.6,32,33.6L32,33.6L32,33.6z M52.7,49.9c-0.9-3.7-2.9-7.2-5.6-9.9
	c-2.2-2.2-4.9-3.9-7.8-5c3.5-2.3,5.7-6.3,5.7-10.8c0-7.2-5.9-13-13-13s-13,5.9-13,13c0,4.5,2.3,8.5,5.7,10.8c-2.7,1-5.1,2.5-7.2,4.4
	c-3.1,2.8-5.2,6.5-6.2,10.5C7.2,45.1,4.6,38.8,4.6,32C4.6,16.9,16.9,4.6,32,4.6S59.4,16.9,59.4,32C59.4,38.8,56.8,45.1,52.7,49.9
	L52.7,49.9z"/>
</svg>
