<?xml version="1.0" encoding="utf-8"?>
<!-- Generator: Adobe Illustrator 27.8.1, SVG Export Plug-In . SVG Version: 6.00 Build 0)  -->
<svg version="1.1" id="Capa_1" xmlns="http://www.w3.org/2000/svg" xmlns:xlink="http://www.w3.org/1999/xlink" x="0px" y="0px"
	 viewBox="0 0 64 64" style="enable-background:new 0 0 64 64;" xml:space="preserve">
<style type="text/css">
	.st0{fill:#FFFFFF;}
</style>
<g>
	<path class="st0" d="M61.2,54.5h-1.1V34.6c0-0.5-0.4-0.9-0.9-0.9c-0.5,0-0.9,0.4-0.9,0.9v19.8h-5.7V9.5h5.7v25.8
		c0,0.5,0.4,0.9,0.9,0.9c0.5,0,0.9-0.4,0.9-0.9v-26c0-0.9-0.7-1.7-1.7-1.7h-6c-0.9,0-1.7,0.7-1.7,1.7v45.1h-2.4V27
		c0-0.9-0.7-1.7-1.7-1.7h-0.9c-0.5,0-0.9,0.4-0.9,0.9c0,0.5,0.4,0.9,0.9,0.9h0.8v27.3h-5.7V27.2h5.3c0.5,0,0.9-0.4,0.9-0.9
		c0-0.5-0.4-0.9-0.9-0.9h-5.4c-0.9,0-1.7,0.7-1.7,1.7v27.4h-2.4V21.1c0-0.9-0.7-1.7-1.7-1.7h-6c-0.9,0-1.7,0.7-1.7,1.7v33.3H25V32.9
		c0-0.9-0.7-1.7-1.7-1.7h-6c-0.9,0-1.7,0.7-1.7,1.7v21.6h-2.4V38.8c0-0.9-0.7-1.7-1.7-1.7h-6c-0.9,0-1.7,0.7-1.7,1.7v15.7H2.8
		c-0.5,0-0.9,0.4-0.9,0.9c0,0.5,0.4,0.9,0.9,0.9h58.4c0.5,0,0.9-0.4,0.9-0.9C62.1,54.9,61.7,54.5,61.2,54.5L61.2,54.5z M5.7,54.5
		V38.9h5.7v15.6H5.7z M17.4,54.5V33.1h5.7v21.4H17.4z M29.1,54.5V21.3h5.7v33.2H29.1z M29.1,54.5"/>
</g>
</svg>
