<?xml version="1.0" encoding="utf-8"?>
<!-- Generator: Adobe Illustrator 27.8.1, SVG Export Plug-In . SVG Version: 6.00 Build 0)  -->
<svg version="1.1" id="Capa_1" xmlns="http://www.w3.org/2000/svg" xmlns:xlink="http://www.w3.org/1999/xlink" x="0px" y="0px"
	 viewBox="0 0 64 64" style="enable-background:new 0 0 64 64;" xml:space="preserve">
<style type="text/css">
	.st0{fill:#FFFFFF;}
</style>
<path class="st0" d="M53.5,24.8c1.7-1.7,2.7-4,2.7-6.5c0-5-4.1-9.1-9.1-9.1c-1.7,0-3.3,0.5-4.7,1.3c-0.5,0.3-0.6,0.9-0.3,1.4
	s0.9,0.6,1.4,0.3c1.1-0.7,2.4-1,3.7-1c3.9,0,7.1,3.2,7.1,7.1c0,2.4-1.2,4.6-3.2,5.9c-1.7,1.1-3.8,1.4-5.8,0.9
	c-0.5-0.2-1.1,0.2-1.2,0.7c-0.2,0.5,0.2,1.1,0.7,1.2c0.8,0.2,1.7,0.4,2.5,0.4c1.6,0,3.1-0.4,4.5-1.2c5.2,1.9,8.6,6.8,8.6,12.3v5H51
	c-0.7-6.7-5-12.6-11.1-15.4c2-2,3.2-4.7,3.2-7.8c0-6.1-5-11.1-11.1-11.1s-11.1,5-11.1,11.1c0,3,1.2,5.8,3.2,7.8
	c-2.1,0.9-4,2.3-5.6,3.9c-3.1,3.1-5,7.2-5.5,11.5H3.8v-5c0-3.5,1.4-6.8,3.8-9.3c1.4-1.4,3-2.4,4.8-3c1.4,0.8,2.9,1.2,4.5,1.2
	c0.8,0,1.7-0.1,2.5-0.4c0.5-0.2,0.8-0.7,0.7-1.2c-0.2-0.5-0.7-0.8-1.2-0.7c-2,0.6-4.1,0.2-5.8-0.9c-2-1.3-3.2-3.5-3.2-5.9
	c0-3.9,3.2-7.1,7.1-7.1c1.3,0,2.6,0.4,3.7,1c0.5,0.3,1.1,0.1,1.4-0.3c0.3-0.5,0.1-1.1-0.3-1.4c-1.4-0.9-3.1-1.3-4.7-1.3
	c-5,0-9.1,4.1-9.1,9.1c0,2.5,1,4.8,2.7,6.5c-1.6,0.7-3.1,1.8-4.3,3c-2.9,2.9-4.4,6.7-4.4,10.7v6.1c0,0.6,0.5,1,1,1h10.1v8.1
	c0,0.6,0.5,1,1,1h36.3c0.6,0,1-0.5,1-1v-8.1h10.1c0.6,0,1-0.5,1-1v-6.1C62.3,32.6,58.8,27.3,53.5,24.8z M32,11.3
	c5,0,9.1,4.1,9.1,9.1S37,29.5,32,29.5s-9.1-4.1-9.1-9.1S27,11.3,32,11.3z M49.1,52.7H14.9v-7.1c0-4.6,1.8-8.9,5-12.1
	c1.7-1.7,3.8-3,6-3.9c1.8,1.2,3.9,1.9,6.1,1.9c2.3,0,4.4-0.7,6.2-1.9c6.6,2.5,11,8.9,11,16V52.7z"/>
</svg>
