<?xml version="1.0" encoding="UTF-8"?>
<svg id="Capa_1" data-name="Capa 1" xmlns="http://www.w3.org/2000/svg" version="1.1" viewBox="0 0 1080 1080">
  <defs>
    <style>
      .cls-1 {
        fill: #fff;
        fill-rule: evenodd;
        stroke-width: 0px;
      }
    </style>
  </defs>
  <path class="cls-1" d="M724.8,331.6c16.5,14.4,18.2,39.5,3.7,56-14.4,16.5-39.5,18.2-56,3.7l-92.9-81.3v388.6c0,21.9-17.8,39.7-39.7,39.7s-39.7-17.8-39.7-39.7v-388.6l-92.9,81.3c-16.5,14.4-41.5,12.8-56-3.7-14.4-16.5-12.8-41.5,3.7-56l158.7-138.8c15-13.1,37.3-13.1,52.2,0l158.7,138.8ZM222.7,698.7c0-21.9-17.8-39.7-39.7-39.7s-39.7,17.8-39.7,39.7v119c0,43.8,35.5,79.3,79.3,79.3h634.7c43.8,0,79.3-35.5,79.3-79.3v-119c0-21.9-17.8-39.7-39.7-39.7s-39.7,17.8-39.7,39.7v119H222.7v-119ZM222.7,698.7"/>
</svg>