<?xml version="1.0" encoding="utf-8"?>
<!-- Generator: Adobe Illustrator 27.8.1, SVG Export Plug-In . SVG Version: 6.00 Build 0)  -->
<svg version="1.1" id="Capa_1" xmlns="http://www.w3.org/2000/svg" xmlns:xlink="http://www.w3.org/1999/xlink" x="0px" y="0px"
	 viewBox="0 0 64 64" style="enable-background:new 0 0 64 64;" xml:space="preserve">
<style type="text/css">
	.st0{fill:#000000;}
</style>
<g>
	<g>
		<path class="st0" d="M36.3,32.2c-0.9,1.1-0.9,2.7,0.1,3.7l1.4,1.4c0.5,0.5,1.2,0.8,1.9,0.8c0.7,0,1.4-0.3,1.9-0.8l12.8-12.8
			c0.5-0.5,0.8-1.2,0.8-1.9c0-0.7-0.3-1.4-0.8-1.9L53,19.4c-1-1-2.6-1-3.7-0.1L37.9,7.8c1-1.1,0.9-2.7-0.1-3.7l-1.4-1.4
			c-1-1-2.8-1-3.8,0L19.8,15.4c-1.1,1.1-1.1,2.8,0,3.8l1.4,1.4c1,1,2.6,1.1,3.7,0.1l3.7,3.7L3.4,47.8c-2,1.8-2.1,5-0.2,6.9
			c1.9,1.9,5.1,1.9,6.9-0.2l23.3-25.3L36.3,32.2z M8.9,53.3c-1.1,1.3-3.1,1.4-4.3,0.1c-1.2-1.2-1.2-3.2,0.1-4.3L30,25.8l2.3,2.3
			L8.9,53.3z M51.8,20.6l1.4,1.4c0.2,0.2,0.3,0.4,0.3,0.6c0,0.3-0.1,0.5-0.3,0.6L40.4,36.1c-0.4,0.4-0.9,0.4-1.3,0l-1.4-1.4
			c-0.4-0.4-0.4-0.9,0-1.3l12.8-12.8C50.9,20.3,51.4,20.3,51.8,20.6L51.8,20.6z M22.5,19.4L21.1,18c-0.4-0.4-0.4-0.9,0-1.3L33.9,3.9
			c0.4-0.4,0.9-0.4,1.3,0l1.4,1.4c0.4,0.4,0.4,0.9,0,1.3L23.7,19.4C23.4,19.6,22.7,19.6,22.5,19.4L22.5,19.4z M36.6,9.1L48,20.5
			L37.6,30.9L26.1,19.5L36.6,9.1z M36.6,9.1"/>
	</g>
	<path class="st0" d="M42.4,20.3c0.4,0.4,0.9,0.4,1.3,0c0.4-0.4,0.4-0.9,0-1.3l-5.6-5.6c-0.4-0.4-0.9-0.4-1.3,0
		c-0.4,0.4-0.4,0.9,0,1.3L42.4,20.3z M42.4,20.3"/>
	<path class="st0" d="M58.5,54.3V53c0-1.6-1.3-2.8-2.8-2.8H41.4c-1.6,0-2.8,1.3-2.8,2.8v1.4c-2,0-3.7,1.6-3.7,3.7v3.2
		c0,0.5,0.4,0.9,0.9,0.9h25.5c0.5,0,0.9-0.4,0.9-0.9V58C62.1,56,60.4,54.3,58.5,54.3L58.5,54.3z M41.4,51.9h14.3c0.5,0,1,0.5,1,1
		v1.5H40.3V53C40.3,52.3,40.7,51.9,41.4,51.9L41.4,51.9z M60.3,60.3H36.7V58c0-1,0.8-1.8,1.8-1.8h20c1,0,1.8,0.8,1.8,1.8L60.3,60.3
		L60.3,60.3z M60.3,60.3"/>
</g>
</svg>
