<?xml version="1.0" encoding="UTF-8"?>
<svg id="Capa_1" data-name="Capa 1" xmlns="http://www.w3.org/2000/svg" version="1.1" viewBox="0 0 1080 1080">
  <defs>
    <style>
      .cls-1 {
        fill: #fff;
        stroke-width: 0px;
      }
    </style>
  </defs>
  <path class="cls-1" d="M913.5,460.8c-15.4-2.3-31.3-4.5-47.1-6.6-1.9-.2-3.5-1.5-4-3.3-7.3-26.5-17.9-52-31.5-75.9-.9-1.6-.7-3.6.4-5.1,9.7-12.6,19.3-25.4,28.6-37.9,12.5-16.9,10.7-41-4.2-55.9l-51.8-51.8c-14.9-14.9-39-16.8-55.9-4.2-12.5,9.3-25.3,18.9-37.9,28.6-1.5,1.2-3.5,1.3-5.2.4-23.9-13.6-49.4-24.2-75.9-31.5-1.8-.5-3.1-2-3.3-4-2.1-15.8-4.3-31.6-6.6-47.1-3.1-20.8-21.4-36.6-42.5-36.6h-73.3c-21.1,0-39.4,15.7-42.5,36.6-2.3,15.4-4.5,31.2-6.6,47.1-.3,1.9-1.5,3.5-3.3,4-26.5,7.3-52,17.9-75.9,31.5-1.6.9-3.6.7-5.2-.4-12.7-9.7-25.4-19.4-37.9-28.6-16.9-12.5-41-10.7-55.9,4.2l-51.8,51.8c-14.9,14.9-16.8,39-4.2,55.9,9.3,12.6,18.9,25.3,28.6,37.9,1.2,1.5,1.3,3.5.4,5.1-13.6,23.9-24.2,49.4-31.5,75.9-.5,1.8-2,3.1-4,3.3-15.8,2.1-31.6,4.3-47,6.6-20.8,3.1-36.6,21.4-36.6,42.5v73.3c0,21.1,15.7,39.4,36.6,42.5,15.4,2.3,31.3,4.5,47.1,6.6,1.9.3,3.5,1.6,4,3.3,7.3,26.5,17.9,52,31.5,75.9.9,1.6.7,3.6-.4,5.2-9.7,12.6-19.3,25.4-28.6,37.9-12.5,16.9-10.7,41,4.2,55.9l51.8,51.8c14.9,14.9,39,16.8,55.9,4.2,12.5-9.3,25.3-18.9,37.9-28.6,1.5-1.2,3.5-1.3,5.1-.4,23.9,13.6,49.4,24.2,75.9,31.5,1.8.5,3.1,2,3.3,4,2.1,15.8,4.3,31.6,6.6,47,3.1,20.8,21.4,36.6,42.5,36.6h73.3c21.1,0,39.4-15.7,42.5-36.6,2.3-15.4,4.5-31.2,6.6-47.1.3-1.9,1.5-3.5,3.3-4,26.5-7.3,52-17.9,75.9-31.5,1.6-.9,3.6-.7,5.2.4,12.7,9.7,25.4,19.4,37.9,28.6,16.9,12.5,41,10.7,55.9-4.2l51.8-51.8c14.9-14.9,16.8-39,4.2-55.9-9.3-12.6-18.9-25.3-28.6-37.9-1.2-1.5-1.3-3.5-.4-5.1,13.6-23.9,24.2-49.4,31.5-75.9.5-1.8,2-3.1,4-3.3,15.8-2.1,31.6-4.3,47-6.6,20.8-3.1,36.6-21.4,36.6-42.5v-73.3c0-21.1-15.7-39.4-36.6-42.5h0ZM911.7,576.6c0,2.3-1.7,4.3-3.9,4.7-15.2,2.3-30.8,4.5-46.3,6.5-17.2,2.2-31.3,14.4-35.9,31.1-6.4,23.4-15.8,46-27.8,67.2-8.5,15-7.2,33.7,3.4,47.4,9.6,12.4,19.1,25,28.2,37.4,1.3,1.8,1.1,4.4-.5,6.1l-51.8,51.8c-1.6,1.6-4.2,1.9-6.1.5-12.3-9.1-24.9-18.6-37.4-28.2-13.8-10.6-32.4-11.9-47.4-3.4-21.1,12-43.7,21.4-67.2,27.8-16.7,4.6-28.8,18.7-31.1,35.9-2,15.6-4.2,31.2-6.5,46.3-.3,2.2-2.3,3.9-4.7,3.9h-73.3c-2.3,0-4.3-1.7-4.7-3.9-2.3-15.2-4.5-30.7-6.5-46.3-2.3-17.2-14.5-31.3-31.1-35.9-23.4-6.4-46-15.8-67.2-27.8-6.6-3.7-13.9-5.6-21.1-5.6s-18.6,3-26.3,9c-12.5,9.6-25,19.1-37.4,28.2-1.8,1.3-4.4,1.1-6.1-.5l-51.8-51.8c-1.6-1.6-1.9-4.2-.5-6.1,9.1-12.3,18.6-24.9,28.2-37.4,10.6-13.8,11.9-32.4,3.4-47.4-12-21.2-21.4-43.8-27.8-67.2-4.6-16.7-18.7-28.8-35.9-31.1-15.6-2-31.2-4.2-46.3-6.5-2.2-.3-3.9-2.3-3.9-4.7v-73.3c0-2.3,1.7-4.3,3.9-4.7,15.2-2.3,30.8-4.5,46.3-6.5,17.2-2.2,31.3-14.4,35.9-31.1,6.4-23.4,15.8-46,27.8-67.2,8.5-15,7.2-33.7-3.4-47.4-9.6-12.4-19-25-28.2-37.4-1.3-1.8-1.1-4.4.5-6.1l51.8-51.8c1.6-1.6,4.2-1.9,6.1-.5,12.3,9.1,24.9,18.6,37.4,28.2,13.8,10.6,32.4,11.9,47.4,3.4,21.1-12,43.7-21.4,67.2-27.8,16.7-4.6,28.8-18.7,31.1-35.9,2-15.6,4.2-31.2,6.5-46.3.3-2.2,2.3-3.9,4.7-3.9h73.3c2.3,0,4.3,1.7,4.7,3.9,2.3,15.2,4.5,30.7,6.5,46.3,2.2,17.2,14.5,31.3,31.1,35.9,23.4,6.4,46,15.8,67.2,27.8,15,8.5,33.7,7.2,47.4-3.4,12.5-9.6,25-19.1,37.4-28.2,1.8-1.3,4.4-1.1,6.1.5l51.8,51.8c1.6,1.6,1.9,4.3.5,6.1-9.1,12.4-18.6,24.9-28.2,37.4-10.6,13.8-11.9,32.4-3.4,47.4,12,21.1,21.4,43.7,27.8,67.2,4.6,16.6,18.7,28.8,35.9,31.1,15.6,2,31.2,4.2,46.3,6.5,2.2.3,3.9,2.3,3.9,4.7v73.3h0Z"/>
  <path class="cls-1" d="M540,362c-98.1,0-178,79.8-178,178s79.8,178,178,178,178-79.8,178-178-79.8-178-178-178h0ZM540,679.7c-77,0-139.7-62.7-139.7-139.7s62.7-139.7,139.7-139.7,139.7,62.7,139.7,139.7-62.7,139.7-139.7,139.7h0Z"/>
</svg>