<?xml version="1.0" encoding="UTF-8"?>
<svg id="Capa_1" data-name="Capa 1" xmlns="http://www.w3.org/2000/svg" version="1.1" viewBox="0 0 1080 1080">
  <defs>
    <style>
      .cls-1 {
        fill: #fff;
        fill-rule: evenodd;
        stroke-width: 0px;
      }
    </style>
  </defs>
  <path class="cls-1" d="M352.4,590.4c-16.7-14.6-18.4-40.1-3.8-56.8,14.6-16.7,40.1-18.4,56.8-3.8l94.3,82.5V217.8c0-22.2,18-40.3,40.3-40.3s40.3,18,40.3,40.3v394.5l94.3-82.5c16.7-14.6,42.2-12.9,56.8,3.8,14.6,16.7,12.9,42.2-3.8,56.8l-161.1,140.9c-15.2,13.3-37.9,13.3-53,0l-161.1-140.9ZM217.8,701.1c0-22.2-18-40.3-40.3-40.3s-40.3,18-40.3,40.3v120.8c0,44.5,36.1,80.5,80.5,80.5h644.3c44.5,0,80.5-36.1,80.5-80.5v-120.8c0-22.2-18-40.3-40.3-40.3s-40.3,18-40.3,40.3v120.8H217.8v-120.8ZM217.8,701.1"/>
</svg>