<?xml version="1.0" encoding="UTF-8"?>
<svg id="Capa_1" data-name="Capa 1" xmlns="http://www.w3.org/2000/svg" version="1.1" viewBox="0 0 1080 1080">
  <defs>
    <style>
      .cls-1 {
        fill: #fff;
        stroke-width: 0px;
      }
    </style>
  </defs>
  <path class="cls-1" d="M768.4,253.3c.4,0,.7,0,1.1,0,.6,0,1.3,0,1.9-.1,16.9.3,30.4,14.1,30.4,31,0,7.7,6.2,13.9,13.9,13.9s13.9-6.2,13.9-13.9c0-27.6-19.3-51.5-46.3-57.5v-13.4c0-7.7-6.2-13.9-13.9-13.9s-13.9,6.2-13.9,13.9v14c-28.5,7.6-47,35.2-43.1,64.5,3.8,29.3,28.8,51.2,58.3,51.2s31.1,13.9,31.1,31.1-13.9,31-31.1,31-31-13.9-31-31-6.2-13.9-13.9-13.9-13.9,6.2-13.9,13.9c0,26.6,17.9,49.9,43.7,56.8v15.2c0,7.7,6.2,13.9,13.9,13.9s13.9-6.2,13.9-13.9v-14.6c29.4-6.4,49.2-33.9,45.9-63.8-3.2-29.9-28.5-52.5-58.5-52.5-16.7,0-30.4-13.2-31-29.8-.7-16.7,12-30.9,28.6-32.2h0ZM768.4,253.3"/>
  <path class="cls-1" d="M771.7,131.6c-85.5,0-158.5,55.8-185.8,130.5H240.8c-7.6,0-13.8,6.9-13.9,14.5l-3.3,487.6h-98.3c-7.7,0-14.3,5.6-14.3,13.2v61.9c.2,58.3,46.1,106.1,104.3,108.8v.3h429.2v-.4c3.5.1,4.9.4,7.1.4h.3c60.2,0,109-49,109-109.2v-312.9c3.5.2,7.2.3,10.7.3,108.8,0,197.4-88.7,197.4-197.6s-88.5-197.5-197.3-197.5h0ZM220.5,920.6h0c-45,0-81.5-36.4-81.7-81.4v-47.2h403.1v47c0,29,11.6,56.8,32.2,77.3,1.5,1.5,3.3,2.6,4.8,4.3H220.5ZM733.1,839.2c0,44.9-36.3,81.3-81.2,81.4h-.3c-45.1,0-81.6-36.5-81.8-81.6v-61.6c.1-3.6-1.2-7-3.8-9.5-2.5-2.5-6-3.9-9.5-3.7H251.4l3.2-474.4h323.5c-2.5,12.7-3.7,25.7-3.8,38.6,0,27.4,5.7,54.5,16.8,79.6h-131.3c-7.7,0-13.9,6.2-13.9,13.9s6.2,13.9,13.9,13.9h146.4c28.7,45.1,74.5,76.5,126.9,87.1v316.3ZM771.7,498.9c-93.6,0-169.6-75.9-169.5-169.6,0-93.6,75.9-169.6,169.6-169.6s169.6,75.9,169.6,169.6c-.1,93.6-76,169.5-169.6,169.6h0ZM771.7,498.9"/>
  <path class="cls-1" d="M370.5,500.6c-24.5,0-44.5,19.3-44.5,43.1s20,43.1,44.5,43.1,44.5-19.3,44.5-43.1-20-43.1-44.5-43.1h0ZM370.5,558.9c-9.2,0-16.7-6.9-16.7-15.3s7.5-15.3,16.7-15.3,16.7,6.9,16.7,15.3-7.5,15.3-16.7,15.3h0ZM370.5,558.9"/>
  <path class="cls-1" d="M445.9,543.6c0,7.7,6.2,13.9,13.9,13.9h185.3c7.7,0,13.9-6.2,13.9-13.9s-6.2-13.9-13.9-13.9h-185.3c-7.7,0-13.9,6.2-13.9,13.9h0ZM445.9,543.6"/>
  <path class="cls-1" d="M370.5,379.7c-24.5,0-44.5,19.3-44.5,43.1s20,43.1,44.5,43.1,44.5-19.3,44.5-43.1-20-43.1-44.5-43.1h0ZM370.5,438.1c-9.2,0-16.7-6.9-16.7-15.3s7.5-15.3,16.7-15.3,16.7,6.9,16.7,15.3-7.5,15.3-16.7,15.3h0ZM370.5,438.1"/>
  <path class="cls-1" d="M370.5,621.4c-24.5,0-44.5,19.3-44.5,43.1s20,43.1,44.5,43.1,44.5-19.3,44.5-43.1-20-43.1-44.5-43.1h0ZM370.5,679.7c-9.2,0-16.7-6.8-16.7-15.3s7.5-15.3,16.7-15.3,16.7,6.9,16.7,15.3-7.5,15.3-16.7,15.3h0ZM370.5,679.7"/>
  <path class="cls-1" d="M645.1,651.3h-185.3c-7.7,0-13.9,6.2-13.9,13.9s6.2,13.9,13.9,13.9h185.3c7.7,0,13.9-6.2,13.9-13.9s-6.2-13.9-13.9-13.9h0ZM645.1,651.3"/>
</svg>