<?xml version="1.0" encoding="UTF-8"?>
<svg id="Capa_1" data-name="Capa 1" xmlns="http://www.w3.org/2000/svg" version="1.1" viewBox="0 0 1080 1080">
  <defs>
    <style>
      .cls-1 {
        fill: #fff;
        stroke-width: 0px;
      }
    </style>
  </defs>
  <path class="cls-1" d="M855.5,345.4l-120.9-120.9c-3.5-3.5-8.3-5.5-13.3-5.5h-433.2c-38.1,0-69.2,31-69.2,69.2v503.7c0,38.1,31,69.2,69.2,69.2h503.7c38.1,0,69.2-31,69.2-69.2v-433.2c0-5-2-9.8-5.5-13.3h0ZM662.2,256.6v152.5c0,17.4-14.2,31.6-31.6,31.6h-221.6c-17.4,0-31.6-14.2-31.6-31.6v-152.5h284.8ZM377.5,823.4v-192.8c0-17.4,14.2-31.6,31.6-31.6h261.9c17.4,0,31.6,14.2,31.6,31.6v192.8h-325.1ZM823.4,791.9c0,17.4-14.2,31.6-31.6,31.6h-51.7v-192.8c0-38.2-31-69.2-69.2-69.2h-261.9c-38.2,0-69.2,31-69.2,69.2v192.8h-51.7c-17.4,0-31.6-14.2-31.6-31.6v-503.7c0-17.4,14.2-31.6,31.6-31.6h51.7v152.5c0,38.1,31,69.2,69.2,69.2h221.6c38.1,0,69.2-31,69.2-69.2v-152.5h13.7l109.9,109.9v425.4ZM823.4,791.9"/>
  <path class="cls-1" d="M600.4,397.6c10.4,0,18.8-8.4,18.8-18.8v-60.5c0-10.4-8.4-18.8-18.8-18.8s-18.8,8.4-18.8,18.8v60.5c0,10.4,8.4,18.8,18.8,18.8h0ZM600.4,397.6"/>
</svg>