<?xml version="1.0" encoding="utf-8"?>
<!-- Generator: Adobe Illustrator 27.8.1, SVG Export Plug-In . SVG Version: 6.00 Build 0)  -->
<svg version="1.1" id="Capa_1" xmlns="http://www.w3.org/2000/svg" xmlns:xlink="http://www.w3.org/1999/xlink" x="0px" y="0px"
	 viewBox="0 0 64 64" style="enable-background:new 0 0 64 64;" xml:space="preserve">
<style type="text/css">
	.st0{fill:#FFFFFF;}
</style>
<g>
	<g>
		<path class="st0" d="M61.4,28C61.4,28,61.4,28,61.4,28L36,2.7C35,1.6,33.5,1,32,1c-1.5,0-3,0.6-4,1.7L2.7,27.9c0,0,0,0,0,0
			c-2.2,2.2-2.2,5.8,0,8.1c1,1,2.4,1.6,3.8,1.7c0.1,0,0.1,0,0.2,0h1v18.6c0,3.7,3,6.7,6.7,6.7h9.9c1,0,1.8-0.8,1.8-1.8V46.6
			c0-1.7,1.4-3,3.1-3h5.8c1.7,0,3.1,1.4,3.1,3v14.6c0,1,0.8,1.8,1.8,1.8h9.9c3.7,0,6.7-3,6.7-6.7V37.7h0.9c1.5,0,3-0.6,4-1.7
			C63.6,33.8,63.6,30.2,61.4,28L61.4,28z M58.8,33.5c-0.4,0.4-0.9,0.6-1.5,0.6h-2.8c-1,0-1.8,0.8-1.8,1.8v20.4c0,1.7-1.4,3-3,3h-8.1
			V46.6c0-3.7-3-6.7-6.7-6.7h-5.8c-3.7,0-6.7,3-6.7,6.7v12.8h-8.1c-1.7,0-3-1.4-3-3V35.9c0-1-0.8-1.8-1.8-1.8H6.7c0,0-0.1,0-0.1,0
			c-0.5,0-1-0.2-1.4-0.6c-0.8-0.8-0.8-2.1,0-2.9c0,0,0,0,0,0l0,0L30.5,5.2c0.4-0.4,0.9-0.6,1.5-0.6c0.6,0,1.1,0.2,1.5,0.6l25.3,25.3
			c0,0,0,0,0,0C59.6,31.3,59.6,32.7,58.8,33.5L58.8,33.5z M58.8,33.5"/>
	</g>
</g>
</svg>
