<?xml version="1.0" encoding="UTF-8"?>
<svg id="Capa_1" data-name="Capa 1" xmlns="http://www.w3.org/2000/svg" version="1.1" viewBox="0 0 1080 1080">
  <defs>
    <style>
      .cls-1 {
        fill: #ed1c24;
        stroke-width: 0px;
      }

      .cls-2 {
        fill: #162b5f;
        stroke: #162b5f;
        stroke-miterlimit: 10;
        stroke-width: 5px;
      }
    </style>
  </defs>
  <path class="cls-2" d="M920.4,319.8c0-73.3-59.6-132.8-132.8-132.8s-115.6,43.9-129.4,102.6h-395.9c-56.6,0-102.6,46-102.6,102.6v326c0,56.6,46,102.6,102.6,102.6h146.2l64,59.7c8.8,8.2,20,12.3,31.3,12.3s22.5-4.1,31.3-12.3l64-59.7h146.2c56.6,0,102.6-46,102.6-102.6v-280.2c43-22.1,72.5-66.7,72.5-118.3h0ZM292.5,464.3l140.6,102.6-140.6,87.4v-190ZM454.1,582.3l42.6,31.1c2.1,1.5,4.6,2.3,7.1,2.3s5-.8,7.1-2.3l42.6-31.1,161.6,100.5c-.3,16.3-13.7,29.5-30.1,29.5h-362.3c-16.4,0-29.8-13.2-30.1-29.5,0,0,161.6-100.5,161.6-100.5ZM715.1,654.3l-140.6-87.4,140.6-102.6v190ZM715.1,434.5l-211.3,154.2-211.3-154.2v-6c0-16.7,13.5-30.2,30.2-30.2h357.8c9.5,12.9,21.3,24,34.6,32.8v3.4ZM823.8,718.3c0,43.3-35.3,78.5-78.5,78.5h-150.9c-3.1,0-6,1.2-8.2,3.2l-67.5,63c-8.4,7.7-21.3,7.7-29.7,0l-67.5-63c-2.3-2.1-5.2-3.2-8.2-3.2h-151c-43.3,0-78.5-35.3-78.5-78.5v-326c0-43.3,35.2-78.5,78.5-78.5h392.6c0,2-.2,4-.2,6,0,19.4,4.2,37.8,11.7,54.3h-343.7c-29.9,0-54.3,24.4-54.3,54.3v253.6c0,29.9,24.4,54.3,54.3,54.3h362.3c29.9,0,54.3-24.4,54.3-54.3v-238.5c15,5.9,31.2,9.1,48.3,9.1s24.7-1.8,36.2-5.1v270.7ZM787.5,428.5c-37.7,0-70.8-19.2-90.4-48.5,0,0,0,0,0-.2-11.4-17.2-18.2-37.8-18.2-60.1,0-60,48.7-108.7,108.7-108.7s108.7,48.7,108.7,108.7-48.7,108.7-108.7,108.7h0Z"/>
  <circle class="cls-1" cx="788.4" cy="319.8" r="134.2"/>
</svg>