<?xml version="1.0" encoding="utf-8"?>
<!-- Generator: Adobe Illustrator 27.8.1, SVG Export Plug-In . SVG Version: 6.00 Build 0)  -->
<svg version="1.1" id="Capa_1" xmlns="http://www.w3.org/2000/svg" xmlns:xlink="http://www.w3.org/1999/xlink" x="0px" y="0px"
	 viewBox="0 0 64 64" style="enable-background:new 0 0 64 64;" xml:space="preserve">
<style type="text/css">
	.st0{fill:#FFFFFF;}
</style>
<g>
	<g>
		<path class="st0" d="M55.8,43.3l-3.5-3.6c-0.5-0.5-0.8-1.2-0.8-1.9V26.9c0-8.8-5.9-16.3-13.9-18.7c0.1-0.4,0.1-0.7,0.1-1.1
			c0-3.1-2.5-5.7-5.7-5.7c-3.1,0-5.7,2.5-5.7,5.7c0,0.4,0,0.7,0.1,1.1c-8,2.4-13.9,9.9-13.9,18.7v10.9c0,0.7-0.3,1.4-0.8,1.9
			l-3.5,3.6c-2,2-2.5,4.9-1.4,7.4c1.1,2.6,3.5,4.2,6.3,4.2h10.4c0.5,4.2,4.1,7.5,8.5,7.5s8-3.3,8.5-7.5h10.4c2.8,0,5.2-1.6,6.3-4.2
			C58.3,48.2,57.8,45.3,55.8,43.3L55.8,43.3z M30.5,7.2c0-0.8,0.7-1.5,1.5-1.5c0.8,0,1.5,0.7,1.5,1.5c0,0.1,0,0.2,0,0.4
			c-0.5,0-1-0.1-1.4-0.1c-0.5,0-1,0-1.4,0.1C30.5,7.4,30.5,7.3,30.5,7.2L30.5,7.2z M32,58.3c-2,0-3.8-1.4-4.2-3.3h8.5
			C35.8,56.9,34,58.3,32,58.3L32,58.3z M53.4,49.2c-0.2,0.4-0.8,1.6-2.5,1.6H13.1c-1.7,0-2.3-1.3-2.5-1.6c-0.2-0.4-0.6-1.7,0.6-2.9
			l3.5-3.6c1.3-1.3,2-3,2-4.8V26.9c0-8.4,6.9-15.3,15.3-15.3c8.4,0,15.3,6.9,15.3,15.3v10.9c0,1.8,0.7,3.5,2,4.8l3.5,3.6
			C54,47.4,53.5,48.8,53.4,49.2L53.4,49.2z M53.4,49.2"/>
	</g>
</g>
</svg>
