<?xml version="1.0" encoding="UTF-8"?>
<svg id="Capa_1" data-name="Capa 1" xmlns="http://www.w3.org/2000/svg" version="1.1" viewBox="0 0 1080 1080">
  <defs>
    <style>
      .cls-1 {
        fill: #162b5f;
        stroke: #162b5f;
        stroke-miterlimit: 10;
        stroke-width: 5px;
      }
    </style>
  </defs>
  <path class="cls-1" d="M879.8,396.1l-284.3-227.4c-32.7-26.2-78.3-26.2-111,0l-284.3,227.4c-21.2,16.9-33.3,42.2-33.3,69.4v376.7c0,49,39.9,88.8,88.8,88.8h568.6c49,0,88.8-39.9,88.8-88.8v-376.7c0-27.1-12.1-52.4-33.3-69.4h0ZM877.6,842.2c0,5.1-1,9.9-2.3,14.5l-240.3-192.2,242.5-194v371.7h0ZM506.7,196.4c9.8-7.8,21.5-11.8,33.3-11.8s23.5,3.9,33.3,11.8l284.3,227.4c3.6,2.9,6.6,6.2,9.3,9.7l-260.2,208.1-11.1-8.9c-32.2-25.8-78.9-25.8-111.1,0l-11.1,8.9-260.3-208.1c2.7-3.6,5.7-6.9,9.3-9.7l284.3-227.4ZM204.6,856.7c-1.3-4.6-2.3-9.5-2.3-14.5v-371.7l242.5,194-240.3,192.2ZM255.7,895.5c-11.3,0-21.8-3.6-30.5-9.7l281.5-225.2c19.3-15.5,47.3-15.5,66.6,0l281.5,225.2c-8.7,6.1-19.1,9.7-30.5,9.7H255.7Z"/>
</svg>