<?xml version="1.0" encoding="UTF-8"?>
<svg id="Capa_1" data-name="Capa 1" xmlns="http://www.w3.org/2000/svg" version="1.1" viewBox="0 0 1080 1080">
  <defs>
    <style>
      .cls-1 {
        fill: #fff;
        stroke-width: 0px;
      }
    </style>
  </defs>
  <path class="cls-1" d="M152.2,630c9.7,0,19.3-4.3,25.6-12.6l14.1-18.3c21,124.8,108.4,231.5,232.5,274.6,38.2,13.2,77.4,19.6,116.1,19.6,115.8,0,227.2-57.1,294-157.7,9.9-14.9,5.8-34.9-9.1-44.8-14.9-9.9-34.9-5.8-44.8,9.1-72.7,109.7-210.4,156.1-334.9,112.8-103.3-35.9-175.4-125.8-190.7-230.2l27.7,21.3c14.2,10.8,34.4,8.2,45.3-5.9,10.9-14.2,8.3-34.4-5.9-45.3,0,0-76.4-58.8-76.6-59-16.1-12.4-38.9-19.3-53.5-.4l-65.3,84.8c-10.9,14.1-8.3,34.4,5.9,45.3,5.8,4.5,12.8,6.7,19.7,6.7h0ZM152.2,630"/>
  <path class="cls-1" d="M254.6,389.1c14.8,9.9,34.9,5.8,44.8-9.1,72.7-109.6,210.5-156,334.9-112.8,103.3,35.9,175.4,125.8,190.7,230.2l-27.7-21.3c-14.2-10.9-34.4-8.3-45.3,5.9-10.9,14.2-8.3,34.4,5.9,45.3,0,0,76.4,58.8,76.6,59,16.3,12.6,38.7,19.6,53.4.4l65.3-84.8c10.9-14.1,8.3-34.4-5.9-45.3-14.2-10.9-34.4-8.2-45.3,5.9l-14.1,18.2c-21-124.8-108.4-231.5-232.5-274.6-152.5-52.9-321.1,3.8-410,138.1-9.9,14.9-5.8,34.9,9.1,44.8h0ZM254.6,389.1"/>
</svg>