<?xml version="1.0" encoding="UTF-8"?>
<svg id="Capa_1" data-name="Capa 1" xmlns="http://www.w3.org/2000/svg" version="1.1" viewBox="0 0 1080 1080">
  <defs>
    <style>
      .cls-1 {
        fill: #fff;
        stroke-width: 0px;
      }
    </style>
  </defs>
  <path class="cls-1" d="M861.8,580.6c-22.1,0-40.2,18.1-40.2,40.2v54.2c0,80.8-65.9,146.6-146.6,146.6h-270c-80.8,0-146.7-65.9-146.7-146.6v-270c0-80.8,65.9-146.6,146.7-146.6h53.8c22.1,0,40.2-18.1,40.2-40.2s-18.1-40.2-40.2-40.2h-53.8c-125.4,0-227,102.1-227,227v270c0,125.3,102.1,227,227,227h270c125.4,0,227-102.1,227-227v-54.2c0-22.1-18.1-40.2-40.2-40.2h0ZM861.8,580.6"/>
  <path class="cls-1" d="M350,472.1c-15.7,15.7-15.7,41,0,56.6l131,131c14.5,14.5,34.2,22.5,54.6,22.5h4.8c22.1-1.2,42.6-12,56.2-29.7l255.1-328.3c13.7-17.7,10.5-42.6-6.8-56.2-17.7-13.7-42.6-10.4-56.2,6.8l-253.1,325.8-128.6-128.6c-15.7-15.7-41-15.7-56.6,0h-.4ZM350,472.1"/>
</svg>