<?xml version="1.0" encoding="UTF-8"?>
<svg id="Capa_1" data-name="Capa 1" xmlns="http://www.w3.org/2000/svg" version="1.1" viewBox="0 0 1080 1080">
  <defs>
    <style>
      .cls-1 {
        fill: #0a41bc;
        stroke: #0a41bc;
        stroke-miterlimit: 10;
        stroke-width: 5px;
      }
    </style>
  </defs>
  <path class="cls-1" d="M857.1,434.3c25.4-24.9,40.2-58.9,40.2-95.3,0-73.9-60.1-134-134-134s-48.4,6.7-69.5,19.4c-7,4.3-9.3,13.4-5.1,20.4,4.2,7,13.4,9.3,20.4,5.1,16.4-9.9,35.1-15.1,54.1-15.1,57.5,0,104.2,46.8,104.2,104.2s-17.7,68-47.5,87.3c-25,16.4-56.6,21.1-85.6,12.9-7.8-2.3-16.1,2.3-18.4,10.2-2.3,7.9,2.3,16.1,10.2,18.4,12,3.4,24.5,5.2,37,5.2,23.4,0,46-6.4,66.1-17.9,76.4,27.7,127.4,99.9,127.4,181.7v74.4h-135.8c-10.5-99.4-73.1-186.5-164.4-227.8,29-29.6,47-70,47-114.7,0-90.3-73.5-163.8-163.8-163.8s-163.8,73.5-163.8,163.8,18,85.1,47,114.7c-30.7,14-59.2,33.5-83.4,57.5-46.3,46.4-74.5,106.1-81.2,170.3H123.1v-74.4c0-51.6,20.1-100.2,56.6-136.8,20.1-20,44.6-35.2,70.9-44.8,20.1,11.5,42.7,17.8,66,17.8s25-1.7,37-5.2c7.9-2.3,12.5-10.5,10.2-18.4-2.3-7.9-10.6-12.5-18.4-10.2-28.9,8.3-60.6,3.5-85.6-12.9-29.7-19.3-47.4-51.9-47.4-87.3,0-57.5,46.8-104.2,104.2-104.2s37.7,5.2,54.1,15.1c7.1,4.2,16.2,2,20.4-5.1,4.2-7,2-16.2-5.1-20.4-21.1-12.7-45.1-19.4-69.5-19.4-73.9,0-134,60.1-134,134s14.8,70.4,40.1,95.2c-23.6,11-45.4,26.1-64.1,44.6-42.2,42.3-65.4,98.4-65.4,157.9v89.3c0,8.2,6.7,14.9,14.9,14.9h148.9v119.1c0,8.2,6.7,14.9,14.9,14.9h536c8.2,0,14.9-6.7,14.9-14.9v-119.1h148.9c8.2,0,14.9-6.7,14.9-14.9v-89.3c0-88-51.2-166.3-129.5-202.5ZM540,234.8c73.9,0,134,60.1,134,134s-60.1,134-134,134-134-60.1-134-134,60.1-134,134-134ZM793.1,845.2h-506.2v-104.2c0-67.5,26.3-131.1,74.1-179,25.2-25,55.6-44.4,88.3-57,26,17.4,57.2,27.5,90.7,27.5s64.8-10.2,90.8-27.6c97.3,37.4,162.3,131.2,162.3,236v104.2Z"/>
</svg>