<?xml version="1.0" encoding="UTF-8"?>
<svg id="Capa_1" data-name="Capa 1" xmlns="http://www.w3.org/2000/svg" version="1.1" viewBox="0 0 1080 1080">
  <defs>
    <style>
      .cls-1 {
        fill: #0a41bc;
        stroke-width: 0px;
      }
    </style>
  </defs>
  <path class="cls-1" d="M300,881c0,27.9,22.6,50.5,50.5,50.5h429.4c27.9,0,50.5-22.6,50.5-50.5V300c0-27.9-22.6-50.5-50.5-50.5,0-27.9-22.6-50.5-50.5-50.5h-15.3c-8.4-29.9-35.7-50.5-66.8-50.5s-58.3,20.6-66.8,50.5h-280.5c-27.9,0-50.5,22.6-50.5,50.5v580.9c0,27.9,22.6,50.5,50.5,50.5h0ZM780,830.5V274.8c14,0,25.3,11.3,25.3,25.3v580.9c0,14-11.3,25.3-25.3,25.3h-429.4c-14,0-25.3-11.3-25.3-25.3h404.1c27.9,0,50.5-22.6,50.5-50.5h0ZM274.8,249.5c0-14,11.3-25.3,25.3-25.3h277.8v88.4h25.3v-94.7c0-24.4,19.8-44.2,44.2-44.2s44.2,19.8,44.2,44.2v82.1c0,14-11.3,25.3-25.3,25.3s-25.3-11.3-25.3-25.3v-69.5c0-8.4,12.6-8.4,12.6,0v69.5h25.3v-69.5c0-17.4-14.1-31.6-31.6-31.6s-31.6,14.1-31.6,31.6v69.5c0,27.9,22.6,50.5,50.5,50.5s50.5-22.6,50.5-50.5v-75.8h12.6c14,0,25.3,11.3,25.3,25.3v580.9c0,14-11.3,25.3-25.3,25.3h-429.4c-14,0-25.3-11.3-25.3-25.3V249.5ZM274.8,249.5"/>
  <rect class="cls-1" x="300" y="274.8" width="252.6" height="25.3"/>
  <rect class="cls-1" x="300" y="325.3" width="252.6" height="25.3"/>
  <rect class="cls-1" x="300" y="375.8" width="429.4" height="25.3"/>
  <rect class="cls-1" x="300" y="426.3" width="429.4" height="25.3"/>
  <path class="cls-1" d="M527.4,560.7c17.4-6.2,27.8-23.9,24.7-42.1-3.1-18.2-18.9-31.5-37.3-31.5s-34.2,13.3-37.3,31.5c-3.1,18.2,7.3,36,24.7,42.1v15h-151.5v25.3h31.9l-15.2,37.9h-4.1c-7,0-12.6,5.7-12.6,12.6,0,34.9,28.3,63.1,63.1,63.1s63.1-28.3,63.1-63.1-5.7-12.6-12.6-12.6h-4.1l-15.2-37.9h57.1v164.2h-50.5v25.3h126.3v-25.3h-50.5v-164.2h57.1l-15.2,37.9h-4.1c-7,0-12.6,5.7-12.6,12.6,0,34.9,28.3,63.1,63.1,63.1s63.1-28.3,63.1-63.1-5.7-12.6-12.6-12.6h-4.1l-15.2-37.9h31.9v-25.3h-151.5v-15ZM514.7,512.5c5.1,0,9.7,3.1,11.7,7.8,2,4.7.9,10.2-2.7,13.8-3.6,3.6-9,4.7-13.8,2.7-4.7-2-7.8-6.6-7.8-11.7s5.7-12.6,12.6-12.6h0ZM413.7,689.3c-16,0-30.4-10.1-35.7-25.3h71.5c-5.4,15.1-19.7,25.2-35.7,25.3h0ZM432.9,638.8h-38.5l15.2-37.9h8.2l15.2,37.9ZM615.8,689.3c-16,0-30.4-10.1-35.7-25.3h71.5c-5.4,15.1-19.7,25.2-35.7,25.3h0ZM635,638.8h-38.5l15.2-37.9h8.2l15.2,37.9ZM635,638.8"/>
</svg>