<?xml version="1.0" encoding="UTF-8"?>
<svg id="Capa_1" data-name="Capa 1" xmlns="http://www.w3.org/2000/svg" version="1.1" viewBox="0 0 1080 1080">
  <defs>
    <style>
      .cls-1 {
        fill: #fff;
        stroke-width: 0px;
      }
    </style>
  </defs>
  <path class="cls-1" d="M812.2,267.8c-72.7-72.7-169.4-112.8-272.2-112.8s-199.5,40-272.2,112.8c-72.7,72.7-112.8,169.4-112.8,272.2s40,199.5,112.8,272.2c72.7,72.7,169.4,112.8,272.2,112.8s199.5-40,272.2-112.8c72.7-72.7,112.8-169.4,112.8-272.2s-40.1-199.5-112.8-272.2h0ZM322.1,800.6c12.7-109.4,106.8-193.8,217.9-193.8s113.7,22.8,155.1,64.3c35,35,57.1,80.7,62.8,129.6-59,49.4-135,79.3-217.9,79.3s-158.9-29.8-217.9-79.3h0ZM540,560.3c-64.5,0-116.9-52.5-116.9-116.9s52.5-116.9,116.9-116.9,116.9,52.4,116.9,116.9-52.5,116.9-116.9,116.9h0ZM796.7,762.5c-11.5-46.4-35.5-89.1-69.7-123.3-27.7-27.7-60.5-48.5-96.3-61.6,43-29.2,71.3-78.4,71.3-134.2,0-89.3-72.7-162-162-162s-162,72.7-162,162,28.3,105.1,71.4,134.2c-32.9,12-63.4,30.5-89.6,55-38,35.3-64.3,80.4-76.5,129.9-51.8-59.6-83.1-137.5-83.1-222.4,0-187.4,152.5-339.9,339.9-339.9s339.9,152.5,339.9,339.9-31.4,162.8-83.1,222.5h0Z"/>
</svg>